<svg width="20" height="20" viewBox="0 0 20 20" fill="none" xmlns="http://www.w3.org/2000/svg">
    <path d="M12.25 5.24997C12.0717 5.82913 12.0546 6.44595 12.2006 7.03408C12.3466 7.62222 12.6502 8.15943 13.0787 8.58793C13.5072 9.01643 14.0444 9.32002 14.6326 9.46603C15.2207 9.61205 15.8375 9.59497 16.4167 9.41664L17.5 17.5C17.3436 17.6773 17.1513 17.8193 16.9357 17.9166C16.7202 18.0139 16.4865 18.0642 16.25 18.0642C16.0136 18.0642 15.7798 18.0139 15.5643 17.9166C15.3488 17.8193 15.1564 17.6773 15 17.5L7.50001 9.99997C6.74349 10.1002 5.97391 10.0099 5.26112 9.73734C4.54832 9.46477 3.91487 9.01853 3.41823 8.43912C2.92159 7.85971 2.57748 7.16545 2.41714 6.41936C2.25679 5.67326 2.28528 4.89894 2.50001 4.16664L5.41668 7.0833L7.50001 4.99997L4.58334 2.91664C5.31564 2.7019 6.08997 2.67342 6.83607 2.83376C7.58216 2.99411 8.27641 3.33821 8.85583 3.83485C9.43524 4.33149 9.88148 4.96495 10.154 5.67774C10.4266 6.39054 10.5169 7.16011 10.4167 7.91664L12.25 5.24997Z" stroke="#1668D6" stroke-width="1.66667" stroke-linecap="round" stroke-linejoin="round"/>
</svg>
